<?xml version="1.0" encoding="UTF-8"?>
<!DOCTYPE svg PUBLIC "-//W3C//DTD SVG 1.1//EN" "http://www.w3.org/Graphics/SVG/1.1/DTD/svg11.dtd">
<svg xmlns="http://www.w3.org/2000/svg" version="1.1" width="902px" height="1181px" style="shape-rendering:geometricPrecision; text-rendering:geometricPrecision; image-rendering:optimizeQuality; fill-rule:evenodd; clip-rule:evenodd" xmlns:xlink="http://www.w3.org/1999/xlink">
<g><path style="opacity:0.991" fill="#459556" d="M 866.5,179.5 C 857.198,187.589 846.864,194.422 835.5,200C 819.098,207.342 802.432,214.342 785.5,221C 749.861,232.885 713.861,243.052 677.5,251.5C 663.907,254.09 650.574,257.09 637.5,260.5C 632.506,261.405 627.506,262.405 622.5,263.5C 617.073,262.982 612.073,263.982 607.5,266.5C 595.557,268.49 583.557,269.823 571.5,270.5C 557.196,272.231 542.863,273.897 528.5,275.5C 504.002,276.179 479.502,276.846 455,277.5C 426.448,276.82 397.948,275.486 369.5,273.5C 347.037,271.811 324.704,269.144 302.5,265.5C 275.532,259.528 248.532,253.695 221.5,248C 209.277,243.925 196.944,240.259 184.5,237C 161.945,229.508 139.612,221.508 117.5,213C 97.5022,203.25 77.1688,194.25 56.5,186C 54.3825,184.951 52.7158,183.451 51.5,181.5C 53.3242,174.854 56.4909,168.854 61,163.5C 70.7676,151.73 81.2676,140.563 92.5,130C 111.833,114.667 131.167,99.3333 150.5,84C 170.608,70.949 191.275,58.949 212.5,48C 226.069,42.5897 239.735,37.5897 253.5,33C 295.672,21.9708 338.339,13.3042 381.5,7C 407.162,4.41601 432.829,2.24934 458.5,0.5C 469.787,1.31218 481.121,1.81218 492.5,2C 524.521,5.78092 556.521,9.78092 588.5,14C 635.45,23.3166 680.45,38.3166 723.5,59C 739.495,67.6621 755.162,76.8288 770.5,86.5C 792.416,103.412 813.75,121.079 834.5,139.5C 847.114,151.429 857.781,164.762 866.5,179.5 Z"/></g>
<g><path style="opacity:1" fill="#75b583" d="M 609.5,48.5 C 613.915,48.3054 618.249,48.8054 622.5,50C 634.221,55.1864 646.221,59.8531 658.5,64C 687.311,76.4057 715.311,90.4057 742.5,106C 749.007,111.874 750.173,118.707 746,126.5C 741.47,132.171 735.637,134.004 728.5,132C 697.38,113.941 665.047,98.2742 631.5,85C 624.105,82.8684 616.772,80.5351 609.5,78C 601.444,72.0106 599.277,64.1773 603,54.5C 605.063,52.2659 607.229,50.2659 609.5,48.5 Z"/></g>
<g><path style="opacity:1" fill="#71b27f" d="M 760.5,133.5 C 775.577,132.409 781.577,139.242 778.5,154C 774.025,161.513 767.691,163.513 759.5,160C 751.3,150.835 751.634,142.001 760.5,133.5 Z"/></g>
<g><path style="opacity:0.998" fill="#0c3925" d="M 866.5,179.5 C 868.026,180.492 868.693,181.992 868.5,184C 866.307,199.296 863.474,214.463 860,229.5C 850.535,268.387 840.368,307.054 829.5,345.5C 828.167,345.5 826.833,345.5 825.5,345.5C 823.146,345.838 820.813,346.338 818.5,347C 815.588,348.232 812.922,349.732 810.5,351.5C 799.507,355.387 788.507,359.053 777.5,362.5C 770.107,364.392 762.773,366.059 755.5,367.5C 751.521,367.742 747.854,368.742 744.5,370.5C 737.448,371.256 730.448,372.256 723.5,373.5C 724.75,346.332 714.083,325.332 691.5,310.5C 690.808,311.025 690.308,311.692 690,312.5C 687.066,334.435 684.899,356.435 683.5,378.5C 683.5,378.833 683.5,379.167 683.5,379.5C 664.786,380.948 646.119,382.615 627.5,384.5C 629.168,364.33 627.001,344.663 621,325.5C 617.23,315.297 611.897,305.963 605,297.5C 599.833,293 594.667,288.5 589.5,284C 580.689,279.852 571.689,276.186 562.5,273C 565.5,271.926 568.5,271.093 571.5,270.5C 583.557,269.823 595.557,268.49 607.5,266.5C 612.582,265.414 617.582,264.414 622.5,263.5C 627.506,262.405 632.506,261.405 637.5,260.5C 646.572,259.942 655.572,258.776 664.5,257C 668.664,254.768 672.997,252.934 677.5,251.5C 713.861,243.052 749.861,232.885 785.5,221C 802.432,214.342 819.098,207.342 835.5,200C 846.864,194.422 857.198,187.589 866.5,179.5 Z"/></g>
<g><path style="opacity:0.998" fill="#2b6a39" d="M 51.5,181.5 C 52.7158,183.451 54.3825,184.951 56.5,186C 77.1688,194.25 97.5022,203.25 117.5,213C 139.612,221.508 161.945,229.508 184.5,237C 196.944,240.259 209.277,243.925 221.5,248C 248.532,253.695 275.532,259.528 302.5,265.5C 324.704,269.144 347.037,271.811 369.5,273.5C 373.944,274.813 378.611,275.646 383.5,276C 432.009,279.449 480.342,279.282 528.5,275.5C 542.863,273.897 557.196,272.231 571.5,270.5C 568.5,271.093 565.5,271.926 562.5,273C 571.689,276.186 580.689,279.852 589.5,284C 594.667,288.5 599.833,293 605,297.5C 611.897,305.963 617.23,315.297 621,325.5C 627.001,344.663 629.168,364.33 627.5,384.5C 623.733,385.795 619.733,386.461 615.5,386.5C 600.666,386.92 585.999,387.586 571.5,388.5C 565.158,388.334 558.825,388.5 552.5,389C 550.618,389.198 548.952,389.698 547.5,390.5C 538.822,390.584 530.155,390.917 521.5,391.5C 460.435,394.743 399.435,394.076 338.5,389.5C 333.195,388.806 327.862,388.472 322.5,388.5C 319.375,387.521 316.042,387.187 312.5,387.5C 303.67,386.243 294.67,385.243 285.5,384.5C 284.167,384.5 282.833,384.5 281.5,384.5C 281.167,384.5 280.833,384.5 280.5,384.5C 276.433,382.946 272.1,382.28 267.5,382.5C 262.195,381.806 256.862,381.472 251.5,381.5C 248.375,380.521 245.042,380.187 241.5,380.5C 236.384,379.194 231.051,378.527 225.5,378.5C 221.232,377.627 216.898,377.294 212.5,377.5C 207.731,376.111 202.731,375.444 197.5,375.5C 195.485,374.076 193.152,373.41 190.5,373.5C 189.167,373.5 187.833,373.5 186.5,373.5C 184.485,372.076 182.152,371.41 179.5,371.5C 178.167,371.5 176.833,371.5 175.5,371.5C 172.495,369.723 169.162,368.723 165.5,368.5C 163.485,367.076 161.152,366.41 158.5,366.5C 157.5,366.5 156.5,366.5 155.5,366.5C 152.495,364.723 149.162,363.723 145.5,363.5C 134.914,361.271 124.581,358.271 114.5,354.5C 112.967,352.755 110.967,351.755 108.5,351.5C 103.916,349.854 99.2492,348.521 94.5,347.5C 80.9771,300.763 67.1438,254.096 53,207.5C 49.8533,198.767 49.3533,190.1 51.5,181.5 Z"/></g>
<g><path style="opacity:1" fill="#1d5434" d="M 677.5,251.5 C 672.997,252.934 668.664,254.768 664.5,257C 655.572,258.776 646.572,259.942 637.5,260.5C 650.574,257.09 663.907,254.09 677.5,251.5 Z"/></g>
<g><path style="opacity:1" fill="#2d6e42" d="M 622.5,263.5 C 617.582,264.414 612.582,265.414 607.5,266.5C 612.073,263.982 617.073,262.982 622.5,263.5 Z"/></g>
<g><path style="opacity:1" fill="#357b44" d="M 369.5,273.5 C 397.948,275.486 426.448,276.82 455,277.5C 479.502,276.846 504.002,276.179 528.5,275.5C 480.342,279.282 432.009,279.449 383.5,276C 378.611,275.646 373.944,274.813 369.5,273.5 Z"/></g>
<g><path style="opacity:1" fill="#2a6938" d="M 723.5,373.5 C 722.005,373.989 720.671,374.655 719.5,375.5C 712.532,376.308 705.532,376.974 698.5,377.5C 693.482,377.613 688.482,377.947 683.5,378.5C 684.899,356.435 687.066,334.435 690,312.5C 690.308,311.692 690.808,311.025 691.5,310.5C 714.083,325.332 724.75,346.332 723.5,373.5 Z"/></g>
<g><path style="opacity:0.993" fill="#5e1307" d="M 825.5,345.5 C 826.833,345.5 828.167,345.5 829.5,345.5C 822.168,374.162 814.835,402.828 807.5,431.5C 798.687,435.072 790.354,439.405 782.5,444.5C 777.557,447.14 772.557,449.474 767.5,451.5C 764.284,451.345 761.617,452.345 759.5,454.5C 753.258,456.492 746.924,458.492 740.5,460.5C 734.109,462.07 728.109,464.404 722.5,467.5C 721.167,467.5 719.833,467.5 718.5,467.5C 720.115,436.839 721.782,406.172 723.5,375.5C 722.167,375.5 720.833,375.5 719.5,375.5C 720.671,374.655 722.005,373.989 723.5,373.5C 730.448,372.256 737.448,371.256 744.5,370.5C 747.002,370.251 749.502,369.917 752,369.5C 753.681,369.392 754.848,368.725 755.5,367.5C 763.471,367.579 770.804,365.912 777.5,362.5C 788.507,359.053 799.507,355.387 810.5,351.5C 815.94,350.25 820.94,348.25 825.5,345.5 Z"/></g>
<g><path style="opacity:0.985" fill="#ab221b" d="M 94.5,347.5 C 99.2492,348.521 103.916,349.854 108.5,351.5C 110.033,353.245 112.033,354.245 114.5,354.5C 124.581,358.271 134.914,361.271 145.5,363.5C 148.505,365.277 151.838,366.277 155.5,366.5C 156.5,366.5 157.5,366.5 158.5,366.5C 160.515,367.924 162.848,368.59 165.5,368.5C 168.505,370.277 171.838,371.277 175.5,371.5C 176.833,371.5 178.167,371.5 179.5,371.5C 181.515,372.924 183.848,373.59 186.5,373.5C 187.833,373.5 189.167,373.5 190.5,373.5C 192.515,374.924 194.848,375.59 197.5,375.5C 201.267,376.795 205.267,377.461 209.5,377.5C 222.894,422.687 235.894,468.021 248.5,513.5C 245.167,513.5 241.833,513.5 238.5,513.5C 237.167,513.5 235.833,513.5 234.5,513.5C 224.035,512.029 213.368,511.362 202.5,511.5C 193.635,509.663 184.635,508.663 175.5,508.5C 170.466,507.627 165.466,506.627 160.5,505.5C 159.5,505.5 158.5,505.5 157.5,505.5C 156.391,505.443 155.391,505.11 154.5,504.5C 150.498,502.39 146.165,501.057 141.5,500.5C 140.833,500.5 140.167,500.5 139.5,500.5C 125.1,449.303 110.1,398.303 94.5,347.5 Z"/></g>
<g><path style="opacity:1" fill="#3a2514" d="M 825.5,345.5 C 820.94,348.25 815.94,350.25 810.5,351.5C 812.922,349.732 815.588,348.232 818.5,347C 820.813,346.338 823.146,345.838 825.5,345.5 Z"/></g>
<g><path style="opacity:1" fill="#774127" d="M 108.5,351.5 C 110.967,351.755 112.967,352.755 114.5,354.5C 112.033,354.245 110.033,353.245 108.5,351.5 Z"/></g>
<g><path style="opacity:1" fill="#5f4f2c" d="M 145.5,363.5 C 149.162,363.723 152.495,364.723 155.5,366.5C 151.838,366.277 148.505,365.277 145.5,363.5 Z"/></g>
<g><path style="opacity:1" fill="#491d0f" d="M 777.5,362.5 C 770.804,365.912 763.471,367.579 755.5,367.5C 762.773,366.059 770.107,364.392 777.5,362.5 Z"/></g>
<g><path style="opacity:1" fill="#5f4d2c" d="M 158.5,366.5 C 161.152,366.41 163.485,367.076 165.5,368.5C 162.848,368.59 160.515,367.924 158.5,366.5 Z"/></g>
<g><path style="opacity:1" fill="#774026" d="M 165.5,368.5 C 169.162,368.723 172.495,369.723 175.5,371.5C 171.838,371.277 168.505,370.277 165.5,368.5 Z"/></g>
<g><path style="opacity:1" fill="#432011" d="M 755.5,367.5 C 754.848,368.725 753.681,369.392 752,369.5C 749.502,369.917 747.002,370.251 744.5,370.5C 747.854,368.742 751.521,367.742 755.5,367.5 Z"/></g>
<g><path style="opacity:1" fill="#734227" d="M 179.5,371.5 C 182.152,371.41 184.485,372.076 186.5,373.5C 183.848,373.59 181.515,372.924 179.5,371.5 Z"/></g>
<g><path style="opacity:1" fill="#67492a" d="M 190.5,373.5 C 193.152,373.41 195.485,374.076 197.5,375.5C 194.848,375.59 192.515,374.924 190.5,373.5 Z"/></g>
<g><path style="opacity:1" fill="#654527" d="M 197.5,375.5 C 202.731,375.444 207.731,376.111 212.5,377.5C 211.5,377.5 210.5,377.5 209.5,377.5C 205.267,377.461 201.267,376.795 197.5,375.5 Z"/></g>
<g><path style="opacity:1" fill="#85140e" d="M 719.5,375.5 C 720.833,375.5 722.167,375.5 723.5,375.5C 721.782,406.172 720.115,436.839 718.5,467.5C 716.703,468.73 714.703,469.396 712.5,469.5C 710.214,469.595 708.214,470.262 706.5,471.5C 698.328,473.885 689.994,475.885 681.5,477.5C 680.177,474.062 679.51,470.229 679.5,466C 680.8,437.103 682.134,408.27 683.5,379.5C 688.731,379.556 693.731,378.889 698.5,377.5C 705.532,376.974 712.532,376.308 719.5,375.5 Z"/></g>
<g><path style="opacity:1" fill="#86140e" d="M 209.5,377.5 C 210.5,377.5 211.5,377.5 212.5,377.5C 216.898,377.294 221.232,377.627 225.5,378.5C 230.598,379.957 235.931,380.624 241.5,380.5C 245.042,380.187 248.375,380.521 251.5,381.5C 249.167,381.5 246.833,381.5 244.5,381.5C 256.412,425.881 268.079,470.215 279.5,514.5C 269.167,514.5 258.833,514.5 248.5,514.5C 244.958,514.813 241.625,514.479 238.5,513.5C 241.833,513.5 245.167,513.5 248.5,513.5C 235.894,468.021 222.894,422.687 209.5,377.5 Z"/></g>
<g><path style="opacity:1" fill="#5f3b20" d="M 225.5,378.5 C 231.051,378.527 236.384,379.194 241.5,380.5C 235.931,380.624 230.598,379.957 225.5,378.5 Z"/></g>
<g><path style="opacity:1" fill="#64361e" d="M 698.5,377.5 C 693.731,378.889 688.731,379.556 683.5,379.5C 683.5,379.167 683.5,378.833 683.5,378.5C 688.482,377.947 693.482,377.613 698.5,377.5 Z"/></g>
<g><path style="opacity:1" fill="#5f1307" d="M 683.5,379.5 C 682.134,408.27 680.8,437.103 679.5,466C 679.51,470.229 680.177,474.062 681.5,477.5C 681.5,477.833 681.5,478.167 681.5,478.5C 676.146,479.356 671.146,481.023 666.5,483.5C 664.833,483.5 663.167,483.5 661.5,483.5C 657.51,483.999 653.51,484.499 649.5,485C 648.429,485.852 647.429,486.685 646.5,487.5C 639.229,489.111 631.896,490.444 624.5,491.5C 625.347,456.497 626.347,421.497 627.5,386.5C 619.903,387.883 612.236,388.55 604.5,388.5C 608.167,387.833 611.833,387.167 615.5,386.5C 619.733,386.461 623.733,385.795 627.5,384.5C 646.119,382.615 664.786,380.948 683.5,379.5 Z"/></g>
<g><path style="opacity:1" fill="#ab221a" d="M 251.5,381.5 C 256.862,381.472 262.195,381.806 267.5,382.5C 271.567,384.054 275.9,384.72 280.5,384.5C 280.833,384.5 281.167,384.5 281.5,384.5C 282.687,385.534 283.52,386.867 284,388.5C 294.98,430.754 305.48,473.087 315.5,515.5C 309.167,515.5 302.833,515.5 296.5,515.5C 292.833,515.5 289.167,515.5 285.5,515.5C 283.735,514.539 281.735,514.205 279.5,514.5C 268.079,470.215 256.412,425.881 244.5,381.5C 246.833,381.5 249.167,381.5 251.5,381.5 Z"/></g>
<g><path style="opacity:1" fill="#54562f" d="M 267.5,382.5 C 272.1,382.28 276.433,382.946 280.5,384.5C 275.9,384.72 271.567,384.054 267.5,382.5 Z"/></g>
<g><path style="opacity:1" fill="#46522c" d="M 285.5,384.5 C 294.67,385.243 303.67,386.243 312.5,387.5C 303.21,387.866 294.21,386.866 285.5,384.5 Z"/></g>
<g><path style="opacity:1" fill="#85140e" d="M 281.5,384.5 C 282.833,384.5 284.167,384.5 285.5,384.5C 294.21,386.866 303.21,387.866 312.5,387.5C 316.042,387.187 319.375,387.521 322.5,388.5C 322.611,389.117 322.944,389.617 323.5,390C 331.525,390.67 339.525,391.503 347.5,392.5C 359.807,393.395 372.141,393.728 384.5,393.5C 386.292,394.309 388.292,394.809 390.5,395C 420.326,396.482 449.993,396.648 479.5,395.5C 490.379,395.81 501.046,395.143 511.5,393.5C 513.5,393.5 515.5,393.5 517.5,393.5C 527.889,393.449 537.889,392.449 547.5,390.5C 562.327,389.98 576.994,389.313 591.5,388.5C 595.833,388.5 600.167,388.5 604.5,388.5C 612.236,388.55 619.903,387.883 627.5,386.5C 626.347,421.497 625.347,456.497 624.5,491.5C 623.22,492.931 621.553,493.598 619.5,493.5C 606.773,496.028 594.106,498.862 581.5,502C 571.629,503.105 561.962,504.605 552.5,506.5C 551.833,506.5 551.167,506.5 550.5,506.5C 543.171,506.129 536.171,507.129 529.5,509.5C 513.353,512.904 497.02,514.237 480.5,513.5C 462.688,514.657 445.021,515.657 427.5,516.5C 412.657,516.171 397.99,516.504 383.5,517.5C 367.833,517.5 352.167,517.5 336.5,517.5C 323.176,516.859 309.843,516.526 296.5,516.5C 296.5,516.167 296.5,515.833 296.5,515.5C 302.833,515.5 309.167,515.5 315.5,515.5C 305.48,473.087 294.98,430.754 284,388.5C 283.52,386.867 282.687,385.534 281.5,384.5 Z"/></g>
<g><path style="opacity:1" fill="#504827" d="M 615.5,386.5 C 611.833,387.167 608.167,387.833 604.5,388.5C 600.167,388.5 595.833,388.5 591.5,388.5C 584.833,388.5 578.167,388.5 571.5,388.5C 585.999,387.586 600.666,386.92 615.5,386.5 Z"/></g>
<g><path style="opacity:1" fill="#5f3b20" d="M 571.5,388.5 C 578.167,388.5 584.833,388.5 591.5,388.5C 576.994,389.313 562.327,389.98 547.5,390.5C 548.952,389.698 550.618,389.198 552.5,389C 558.825,388.5 565.158,388.334 571.5,388.5 Z"/></g>
<g><path style="opacity:1" fill="#762515" d="M 322.5,388.5 C 327.862,388.472 333.195,388.806 338.5,389.5C 341.273,390.657 344.273,391.324 347.5,391.5C 347.5,391.833 347.5,392.167 347.5,392.5C 339.525,391.503 331.525,390.67 323.5,390C 322.944,389.617 322.611,389.117 322.5,388.5 Z"/></g>
<g><path style="opacity:1" fill="#4e4a28" d="M 347.5,392.5 C 347.5,392.167 347.5,391.833 347.5,391.5C 359.999,391.955 372.332,392.622 384.5,393.5C 372.141,393.728 359.807,393.395 347.5,392.5 Z"/></g>
<g><path style="opacity:1" fill="#65361d" d="M 547.5,390.5 C 537.889,392.449 527.889,393.449 517.5,393.5C 518.833,392.833 520.167,392.167 521.5,391.5C 530.155,390.917 538.822,390.584 547.5,390.5 Z"/></g>
<g><path style="opacity:1" fill="#3f5c31" d="M 338.5,389.5 C 399.435,394.076 460.435,394.743 521.5,391.5C 520.167,392.167 518.833,392.833 517.5,393.5C 515.5,393.5 513.5,393.5 511.5,393.5C 500.621,393.19 489.954,393.857 479.5,395.5C 449.993,396.648 420.326,396.482 390.5,395C 388.292,394.809 386.292,394.309 384.5,393.5C 372.332,392.622 359.999,391.955 347.5,391.5C 344.273,391.324 341.273,390.657 338.5,389.5 Z"/></g>
<g><path style="opacity:1" fill="#64361e" d="M 511.5,393.5 C 501.046,395.143 490.379,395.81 479.5,395.5C 489.954,393.857 500.621,393.19 511.5,393.5 Z"/></g>
<g><path style="opacity:0.995" fill="#2b6a39" d="M 807.5,431.5 C 809.857,431.337 812.19,431.503 814.5,432C 825.186,436.122 835.852,440.455 846.5,445C 852.191,448.513 857.524,452.513 862.5,457C 869.754,464.25 876.254,472.083 882,480.5C 891.593,503.621 891.927,526.954 883,550.5C 879.532,558.464 874.699,565.464 868.5,571.5C 860.98,578.188 853.313,584.688 845.5,591C 824.954,605.72 804.287,620.22 783.5,634.5C 782.778,634.082 782.278,633.416 782,632.5C 781.167,627.5 780.333,622.5 779.5,617.5C 779.577,615.701 780.077,614.034 781,612.5C 790.693,604.301 800.193,595.968 809.5,587.5C 814.5,584.5 818.5,580.5 821.5,575.5C 829.594,567.239 836.76,558.239 843,548.5C 847.212,540.164 846.045,532.831 839.5,526.5C 839.074,524.715 837.908,523.715 836,523.5C 832.888,522.517 829.722,521.85 826.5,521.5C 810.265,519.446 793.931,518.946 777.5,520C 771.919,520.15 766.586,520.983 761.5,522.5C 754.357,522.7 747.69,524.367 741.5,527.5C 728.002,530.094 715.002,534.094 702.5,539.5C 700.302,539.12 698.635,539.787 697.5,541.5C 685.1,545.528 672.767,549.861 660.5,554.5C 656.173,556.445 651.673,558.111 647,559.5C 645.97,559.836 645.47,560.503 645.5,561.5C 644.127,561.343 642.793,561.51 641.5,562C 632.949,565.563 624.616,569.396 616.5,573.5C 611.728,574.199 607.395,575.866 603.5,578.5C 594.243,582.303 585.243,586.303 576.5,590.5C 570.19,591.495 564.524,593.828 559.5,597.5C 556.284,597.345 553.617,598.345 551.5,600.5C 531.452,608.861 511.452,617.195 491.5,625.5C 486.492,627.012 481.826,629.012 477.5,631.5C 472.209,632.144 467.542,634.144 463.5,637.5C 452.812,640.913 442.145,644.579 431.5,648.5C 425.859,649.932 420.525,651.932 415.5,654.5C 411.467,655.025 407.8,656.358 404.5,658.5C 398.016,660.037 391.683,662.037 385.5,664.5C 379.856,665.983 374.189,667.483 368.5,669C 365.697,669.615 363.364,670.782 361.5,672.5C 343.796,676.707 326.129,681.041 308.5,685.5C 304.163,685.584 300.163,686.584 296.5,688.5C 278.688,692.81 260.688,696.144 242.5,698.5C 240.775,698.157 240.275,697.157 241,695.5C 265.352,636.433 289.518,577.1 313.5,517.5C 307.642,517.822 301.975,517.489 296.5,516.5C 309.843,516.526 323.176,516.859 336.5,517.5C 344.107,519.027 351.94,519.693 360,519.5C 368.06,519.693 375.893,519.027 383.5,517.5C 397.99,516.504 412.657,516.171 427.5,516.5C 442.17,516.667 456.837,516.5 471.5,516C 474.678,515.34 477.678,514.507 480.5,513.5C 497.02,514.237 513.353,512.904 529.5,509.5C 536.731,509.153 543.731,508.153 550.5,506.5C 551.167,506.5 551.833,506.5 552.5,506.5C 575.642,505.393 597.975,501.06 619.5,493.5C 621.553,493.598 623.22,492.931 624.5,491.5C 631.896,490.444 639.229,489.111 646.5,487.5C 651.745,486.658 656.745,485.325 661.5,483.5C 663.167,483.5 664.833,483.5 666.5,483.5C 671.915,482.806 676.915,481.14 681.5,478.5C 681.5,478.167 681.5,477.833 681.5,477.5C 689.994,475.885 698.328,473.885 706.5,471.5C 708.898,471.741 710.898,471.074 712.5,469.5C 714.703,469.396 716.703,468.73 718.5,467.5C 719.833,467.5 721.167,467.5 722.5,467.5C 724.927,467.477 727.26,466.977 729.5,466C 733.437,464.428 737.104,462.595 740.5,460.5C 746.924,458.492 753.258,456.492 759.5,454.5C 762.397,453.871 765.064,452.871 767.5,451.5C 773.92,451.971 778.92,449.637 782.5,444.5C 790.354,439.405 798.687,435.072 807.5,431.5 Z"/></g>
<g><path style="opacity:1" fill="#38592e" d="M 782.5,444.5 C 778.92,449.637 773.92,451.971 767.5,451.5C 772.557,449.474 777.557,447.14 782.5,444.5 Z"/></g>
<g><path style="opacity:1" fill="#4a381b" d="M 767.5,451.5 C 765.064,452.871 762.397,453.871 759.5,454.5C 761.617,452.345 764.284,451.345 767.5,451.5 Z"/></g>
<g><path style="opacity:1" fill="#3d4e28" d="M 740.5,460.5 C 737.104,462.595 733.437,464.428 729.5,466C 727.26,466.977 724.927,467.477 722.5,467.5C 728.109,464.404 734.109,462.07 740.5,460.5 Z"/></g>
<g><path style="opacity:1" fill="#5d3c21" d="M 712.5,469.5 C 710.898,471.074 708.898,471.741 706.5,471.5C 708.214,470.262 710.214,469.595 712.5,469.5 Z"/></g>
<g><path style="opacity:1" fill="#3e4e29" d="M 681.5,478.5 C 676.915,481.14 671.915,482.806 666.5,483.5C 671.146,481.023 676.146,479.356 681.5,478.5 Z"/></g>
<g><path style="opacity:1" fill="#522b14" d="M 661.5,483.5 C 656.745,485.325 651.745,486.658 646.5,487.5C 647.429,486.685 648.429,485.852 649.5,485C 653.51,484.499 657.51,483.999 661.5,483.5 Z"/></g>
<g><path style="opacity:1" fill="#47532c" d="M 619.5,493.5 C 597.975,501.06 575.642,505.393 552.5,506.5C 561.962,504.605 571.629,503.105 581.5,502C 594.106,498.862 606.773,496.028 619.5,493.5 Z"/></g>
<g><path style="opacity:1" fill="#894a2e" d="M 141.5,501.5 C 141.5,501.167 141.5,500.833 141.5,500.5C 146.165,501.057 150.498,502.39 154.5,504.5C 150.109,503.808 145.776,502.808 141.5,501.5 Z"/></g>
<g><path style="opacity:0.967" fill="#2b6b39" d="M 139.5,500.5 C 140.167,500.5 140.833,500.5 141.5,500.5C 141.5,500.833 141.5,501.167 141.5,501.5C 102.862,553.145 64.1952,604.812 25.5,656.5C 14.3257,645.464 5.659,632.797 -0.5,618.5C -0.5,610.5 -0.5,602.5 -0.5,594.5C 2.10852,588.375 6.10852,583.208 11.5,579C 54.3209,553.089 96.9875,526.923 139.5,500.5 Z"/></g>
<g><path style="opacity:0.995" fill="#459556" d="M 141.5,501.5 C 145.776,502.808 150.109,503.808 154.5,504.5C 155.391,505.11 156.391,505.443 157.5,505.5C 158.99,507.28 160.99,507.946 163.5,507.5C 167.316,508.482 171.316,509.149 175.5,509.5C 184.304,510.997 193.304,511.997 202.5,512.5C 213.143,513.345 223.81,513.679 234.5,513.5C 235.833,513.5 237.167,513.5 238.5,513.5C 241.625,514.479 244.958,514.813 248.5,514.5C 207.314,574.565 167.814,635.899 130,698.5C 129.044,699.894 127.711,700.561 126,700.5C 122.542,699.714 119.042,699.38 115.5,699.5C 115.167,699.5 114.833,699.5 114.5,699.5C 112.485,698.076 110.152,697.41 107.5,697.5C 103.803,696.992 100.136,696.326 96.5,695.5C 87.7856,694.318 79.4523,691.818 71.5,688C 60.4707,682.157 49.804,675.824 39.5,669C 34.6389,664.968 29.9723,660.801 25.5,656.5C 64.1952,604.812 102.862,553.145 141.5,501.5 Z"/></g>
<g><path style="opacity:1" fill="#667445" d="M 157.5,505.5 C 158.5,505.5 159.5,505.5 160.5,505.5C 161.5,506.167 162.5,506.833 163.5,507.5C 160.99,507.946 158.99,507.28 157.5,505.5 Z"/></g>
<g><path style="opacity:1" fill="#8b4a2e" d="M 160.5,505.5 C 165.466,506.627 170.466,507.627 175.5,508.5C 175.5,508.833 175.5,509.167 175.5,509.5C 171.316,509.149 167.316,508.482 163.5,507.5C 162.5,506.833 161.5,506.167 160.5,505.5 Z"/></g>
<g><path style="opacity:1" fill="#66341c" d="M 550.5,506.5 C 543.731,508.153 536.731,509.153 529.5,509.5C 536.171,507.129 543.171,506.129 550.5,506.5 Z"/></g>
<g><path style="opacity:1" fill="#934229" d="M 175.5,508.5 C 184.635,508.663 193.635,509.663 202.5,511.5C 202.5,511.833 202.5,512.167 202.5,512.5C 193.304,511.997 184.304,510.997 175.5,509.5C 175.5,509.167 175.5,508.833 175.5,508.5 Z"/></g>
<g><path style="opacity:1" fill="#91432a" d="M 202.5,512.5 C 202.5,512.167 202.5,511.833 202.5,511.5C 213.368,511.362 224.035,512.029 234.5,513.5C 223.81,513.679 213.143,513.345 202.5,512.5 Z"/></g>
<g><path style="opacity:1" fill="#2b6b39" d="M 248.5,514.5 C 258.833,514.5 269.167,514.5 279.5,514.5C 281.735,514.205 283.735,514.539 285.5,515.5C 283.076,515.192 280.743,515.526 278.5,516.5C 250.325,573.532 222.825,630.865 196,688.5C 193.664,693.343 191.831,698.343 190.5,703.5C 168.1,703.973 145.767,703.307 123.5,701.5C 120.572,701.435 117.905,700.768 115.5,699.5C 119.042,699.38 122.542,699.714 126,700.5C 127.711,700.561 129.044,699.894 130,698.5C 167.814,635.899 207.314,574.565 248.5,514.5 Z"/></g>
<g><path style="opacity:1" fill="#45552d" d="M 480.5,513.5 C 477.678,514.507 474.678,515.34 471.5,516C 456.837,516.5 442.17,516.667 427.5,516.5C 445.021,515.657 462.688,514.657 480.5,513.5 Z"/></g>
<g><path style="opacity:1" fill="#459556" d="M 285.5,515.5 C 289.167,515.5 292.833,515.5 296.5,515.5C 296.5,515.833 296.5,516.167 296.5,516.5C 301.975,517.489 307.642,517.822 313.5,517.5C 289.518,577.1 265.352,636.433 241,695.5C 240.275,697.157 240.775,698.157 242.5,698.5C 239.091,699.903 235.425,700.57 231.5,700.5C 225.552,701.602 219.552,702.269 213.5,702.5C 205.842,702.986 198.175,703.32 190.5,703.5C 191.831,698.343 193.664,693.343 196,688.5C 222.825,630.865 250.325,573.532 278.5,516.5C 280.743,515.526 283.076,515.192 285.5,515.5 Z"/></g>
<g><path style="opacity:1" fill="#4b4e2a" d="M 336.5,517.5 C 352.167,517.5 367.833,517.5 383.5,517.5C 375.893,519.027 368.06,519.693 360,519.5C 351.94,519.693 344.107,519.027 336.5,517.5 Z"/></g>
<g><path style="opacity:0.982" fill="#000000" d="M 826.5,521.5 C 830.68,523.342 835.013,525.008 839.5,526.5C 846.045,532.831 847.212,540.164 843,548.5C 836.76,558.239 829.594,567.239 821.5,575.5C 817.167,579.167 813.167,583.167 809.5,587.5C 800.193,595.968 790.693,604.301 781,612.5C 780.077,614.034 779.577,615.701 779.5,617.5C 780.333,622.5 781.167,627.5 782,632.5C 782.278,633.416 782.778,634.082 783.5,634.5C 787.154,660.246 791.321,685.913 796,711.5C 802.085,778.577 792.418,843.243 767,905.5C 755.929,932.803 743.429,959.303 729.5,985C 727.887,985.089 726.72,984.255 726,982.5C 724.001,974.505 722.001,966.505 720,958.5C 708.889,983.94 692.223,1004.94 670,1021.5C 668.831,1020.99 667.998,1020.16 667.5,1019C 668.861,1010.52 670.361,1002.02 672,993.5C 672.667,990.167 672.667,986.833 672,983.5C 663.09,999.151 651.924,1012.98 638.5,1025C 632.855,1029.15 626.855,1032.65 620.5,1035.5C 620.629,1033.78 620.962,1032.12 621.5,1030.5C 643.183,984.76 654.683,936.427 656,885.5C 656.059,858.268 658.559,831.268 663.5,804.5C 664.924,802.485 665.59,800.152 665.5,797.5C 665.53,793.382 666.197,789.382 667.5,785.5C 668.924,783.485 669.59,781.152 669.5,778.5C 675.484,759.249 681.484,739.916 687.5,720.5C 688.924,718.485 689.59,716.152 689.5,713.5C 694.564,674.026 697.23,634.359 697.5,594.5C 698.497,577.008 698.83,559.341 698.5,541.5C 700.38,541.771 701.713,541.104 702.5,539.5C 715.002,534.094 728.002,530.094 741.5,527.5C 748.395,526.191 755.062,524.524 761.5,522.5C 766.586,520.983 771.919,520.15 777.5,520C 793.931,518.946 810.265,519.446 826.5,521.5 Z"/></g>
<g><path style="opacity:1" fill="#1b4525" d="M 826.5,521.5 C 829.722,521.85 832.888,522.517 836,523.5C 837.908,523.715 839.074,524.715 839.5,526.5C 835.013,525.008 830.68,523.342 826.5,521.5 Z"/></g>
<g><path style="opacity:1" fill="#112615" d="M 761.5,522.5 C 755.062,524.524 748.395,526.191 741.5,527.5C 747.69,524.367 754.357,522.7 761.5,522.5 Z"/></g>
<g><path style="opacity:0.996" fill="#d1d1d1" d="M 697.5,541.5 C 697.5,559.167 697.5,576.833 697.5,594.5C 697.23,634.359 694.564,674.026 689.5,713.5C 688.076,715.515 687.41,717.848 687.5,720.5C 681.484,739.916 675.484,759.249 669.5,778.5C 668.076,780.515 667.41,782.848 667.5,785.5C 666.197,789.382 665.53,793.382 665.5,797.5C 664.076,799.515 663.41,801.848 663.5,804.5C 658.559,831.268 656.059,858.268 656,885.5C 654.683,936.427 643.183,984.76 621.5,1030.5C 619.72,1031.99 619.054,1033.99 619.5,1036.5C 600.238,1058.94 580.738,1081.27 561,1103.5C 542.746,1121.69 524.246,1139.52 505.5,1157C 494.178,1165.5 481.845,1172.16 468.5,1177C 453.162,1180 438.495,1178 424.5,1171C 408.537,1160.71 394.037,1148.55 381,1134.5C 359.195,1109.7 338.528,1084.03 319,1057.5C 311.911,1049.58 304.744,1041.92 297.5,1034.5C 297.17,1030.98 295.67,1027.98 293,1025.5C 289.882,1019.6 287.049,1013.6 284.5,1007.5C 284.573,1005.97 283.906,1004.97 282.5,1004.5C 268.876,974.339 260.709,942.672 258,909.5C 256.425,891.866 255.592,874.199 255.5,856.5C 255.93,844.615 255.264,832.949 253.5,821.5C 253.635,801.917 251.635,782.584 247.5,763.5C 247.59,760.848 246.924,758.515 245.5,756.5C 241.458,737.607 236.791,718.941 231.5,700.5C 235.425,700.57 239.091,699.903 242.5,698.5C 260.688,696.144 278.688,692.81 296.5,688.5C 300.163,688.048 303.83,687.548 307.5,687C 308.056,686.617 308.389,686.117 308.5,685.5C 326.129,681.041 343.796,676.707 361.5,672.5C 369.831,670.752 377.831,668.086 385.5,664.5C 391.683,662.037 398.016,660.037 404.5,658.5C 408.673,658.333 412.34,657 415.5,654.5C 420.653,653.595 425.653,652.095 430.5,650C 431.056,649.617 431.389,649.117 431.5,648.5C 442.145,644.579 452.812,640.913 463.5,637.5C 464.873,637.657 466.207,637.49 467.5,637C 470.683,634.702 474.016,632.868 477.5,631.5C 482.939,631.109 487.606,629.109 491.5,625.5C 511.452,617.195 531.452,608.861 551.5,600.5C 554.397,599.871 557.064,598.871 559.5,597.5C 563.998,595.766 568.664,594.266 573.5,593C 574.571,592.148 575.571,591.315 576.5,590.5C 585.243,586.303 594.243,582.303 603.5,578.5C 608.35,577.884 612.683,576.217 616.5,573.5C 624.616,569.396 632.949,565.563 641.5,562C 642.793,561.51 644.127,561.343 645.5,561.5C 649.772,559.909 654.106,558.409 658.5,557C 659.381,556.292 660.047,555.458 660.5,554.5C 672.767,549.861 685.1,545.528 697.5,541.5 Z"/></g>
<g><path style="opacity:1" fill="#191b19" d="M 702.5,539.5 C 701.713,541.104 700.38,541.771 698.5,541.5C 698.83,559.341 698.497,577.008 697.5,594.5C 697.5,576.833 697.5,559.167 697.5,541.5C 698.635,539.787 700.302,539.12 702.5,539.5 Z"/></g>
<g><path style="opacity:1" fill="#7c9d83" d="M 660.5,554.5 C 660.047,555.458 659.381,556.292 658.5,557C 654.106,558.409 649.772,559.909 645.5,561.5C 645.47,560.503 645.97,559.836 647,559.5C 651.673,558.111 656.173,556.445 660.5,554.5 Z"/></g>
<g><path style="opacity:1" fill="#9aaf9e" d="M 616.5,573.5 C 612.683,576.217 608.35,577.884 603.5,578.5C 607.395,575.866 611.728,574.199 616.5,573.5 Z"/></g>
<g><path style="opacity:1" fill="#1b4424" d="M 821.5,575.5 C 818.5,580.5 814.5,584.5 809.5,587.5C 813.167,583.167 817.167,579.167 821.5,575.5 Z"/></g>
<g><path style="opacity:1" fill="#a9b8ac" d="M 576.5,590.5 C 575.571,591.315 574.571,592.148 573.5,593C 568.664,594.266 563.998,595.766 559.5,597.5C 564.524,593.828 570.19,591.495 576.5,590.5 Z"/></g>
<g><path style="opacity:1" fill="#73977b" d="M 559.5,597.5 C 557.064,598.871 554.397,599.871 551.5,600.5C 553.617,598.345 556.284,597.345 559.5,597.5 Z"/></g>
<g><path style="opacity:1" fill="#9db1a1" d="M 491.5,625.5 C 487.606,629.109 482.939,631.109 477.5,631.5C 481.826,629.012 486.492,627.012 491.5,625.5 Z"/></g>
<g><path style="opacity:1" fill="#9bb09f" d="M 477.5,631.5 C 474.016,632.868 470.683,634.702 467.5,637C 466.207,637.49 464.873,637.657 463.5,637.5C 467.542,634.144 472.209,632.144 477.5,631.5 Z"/></g>
<g><path style="opacity:1" fill="#89a48e" d="M 431.5,648.5 C 431.389,649.117 431.056,649.617 430.5,650C 425.653,652.095 420.653,653.595 415.5,654.5C 420.525,651.932 425.859,649.932 431.5,648.5 Z"/></g>
<g><path style="opacity:1" fill="#9aaf9e" d="M 415.5,654.5 C 412.34,657 408.673,658.333 404.5,658.5C 407.8,656.358 411.467,655.025 415.5,654.5 Z"/></g>
<g><path style="opacity:1" fill="#a7b7ab" d="M 385.5,664.5 C 377.831,668.086 369.831,670.752 361.5,672.5C 363.364,670.782 365.697,669.615 368.5,669C 374.189,667.483 379.856,665.983 385.5,664.5 Z"/></g>
<g><path style="opacity:1" fill="#87a48d" d="M 308.5,685.5 C 308.389,686.117 308.056,686.617 307.5,687C 303.83,687.548 300.163,688.048 296.5,688.5C 300.163,686.584 304.163,685.584 308.5,685.5 Z"/></g>
<g><path style="opacity:0.963" fill="#000000" d="M 96.5,695.5 C 100.136,696.326 103.803,696.992 107.5,697.5C 109.515,698.924 111.848,699.59 114.5,699.5C 114.833,699.5 115.167,699.5 115.5,699.5C 117.905,700.768 120.572,701.435 123.5,701.5C 127.972,702.644 132.638,703.477 137.5,704C 159.833,704.667 182.167,704.667 204.5,704C 207.695,703.819 210.695,703.319 213.5,702.5C 219.552,702.269 225.552,701.602 231.5,700.5C 236.791,718.941 241.458,737.607 245.5,756.5C 245.41,759.152 246.076,761.485 247.5,763.5C 251.635,782.584 253.635,801.917 253.5,821.5C 253.106,833.381 253.773,845.048 255.5,856.5C 255.592,874.199 256.425,891.866 258,909.5C 260.709,942.672 268.876,974.339 282.5,1004.5C 282.427,1006.03 283.094,1007.03 284.5,1007.5C 287.049,1013.6 289.882,1019.6 293,1025.5C 295.67,1027.98 297.17,1030.98 297.5,1034.5C 274.569,1023.58 255.736,1007.58 241,986.5C 241.066,992.83 241.066,999.163 241,1005.5C 241.079,1010.12 239.246,1011.28 235.5,1009C 216.328,990.453 201.828,968.619 192,943.5C 174.522,898.592 162.189,852.259 155,804.5C 122.558,829.612 85.891,839.279 45,833.5C 44.3333,832.167 44.3333,830.833 45,829.5C 65.1917,813.983 84.1917,796.983 102,778.5C 106,772.5 110,766.5 114,760.5C 114.667,759.833 114.667,759.167 114,758.5C 92.3023,772.385 68.469,778.718 42.5,777.5C 42.238,776.022 42.5713,774.689 43.5,773.5C 49.4854,768.015 55.3188,762.348 61,756.5C 72.5828,741.011 82.9162,724.678 92,707.5C 94.0017,703.658 95.5017,699.658 96.5,695.5 Z"/></g>
<g><path style="opacity:1" fill="#285631" d="M 107.5,697.5 C 110.152,697.41 112.485,698.076 114.5,699.5C 111.848,699.59 109.515,698.924 107.5,697.5 Z"/></g>
<g><path style="opacity:1" fill="#1e4827" d="M 123.5,701.5 C 145.767,703.307 168.1,703.973 190.5,703.5C 198.175,703.32 205.842,702.986 213.5,702.5C 210.695,703.319 207.695,703.819 204.5,704C 182.167,704.667 159.833,704.667 137.5,704C 132.638,703.477 127.972,702.644 123.5,701.5 Z"/></g>
<g><path style="opacity:1" fill="#3f3f3f" d="M 689.5,713.5 C 689.59,716.152 688.924,718.485 687.5,720.5C 687.41,717.848 688.076,715.515 689.5,713.5 Z"/></g>
<g><path style="opacity:1" fill="#525252" d="M 245.5,756.5 C 246.924,758.515 247.59,760.848 247.5,763.5C 246.076,761.485 245.41,759.152 245.5,756.5 Z"/></g>
<g><path style="opacity:1" fill="#545454" d="M 669.5,778.5 C 669.59,781.152 668.924,783.485 667.5,785.5C 667.41,782.848 668.076,780.515 669.5,778.5 Z"/></g>
<g><path style="opacity:1" fill="#545454" d="M 665.5,797.5 C 665.59,800.152 664.924,802.485 663.5,804.5C 663.41,801.848 664.076,799.515 665.5,797.5 Z"/></g>
<g><path style="opacity:1" fill="#9d9d9d" d="M 253.5,821.5 C 255.264,832.949 255.93,844.615 255.5,856.5C 253.773,845.048 253.106,833.381 253.5,821.5 Z"/></g>
<g><path style="opacity:1" fill="#717171" d="M 282.5,1004.5 C 283.906,1004.97 284.573,1005.97 284.5,1007.5C 283.094,1007.03 282.427,1006.03 282.5,1004.5 Z"/></g>
<g><path style="opacity:0.863" fill="#707070" d="M 621.5,1030.5 C 620.962,1032.12 620.629,1033.78 620.5,1035.5C 620.5,1036.17 620.167,1036.5 619.5,1036.5C 619.054,1033.99 619.72,1031.99 621.5,1030.5 Z"/></g>
</svg>
